<svg width="15" height="15" viewBox="0 0 15 15" fill="none" xmlns="http://www.w3.org/2000/svg">
<path d="M10.6373 0.549872L9.21783 1.96927L13.0306 5.78172L14.4501 4.36232C15.1833 3.62915 15.1833 2.44143 14.4501 1.70827L13.2945 0.549872C12.5613 -0.183291 11.3735 -0.183291 10.6403 0.549872H10.6373ZM8.555 2.63205L1.71846 9.47099C1.41344 9.77599 1.19055 10.1543 1.06736 10.5678L0.0291255 14.0958C-0.0441964 14.3451 0.0232598 14.6119 0.205098 14.7937C0.386937 14.9756 0.653828 15.043 0.90019 14.9726L4.42844 13.9345C4.84198 13.8113 5.22032 13.5884 5.52534 13.2834L12.3677 6.4445L8.555 2.63205Z" fill="#AAAAAA"/>
</svg>
