<svg width="48" height="50" viewBox="0 0 48 50" fill="none" xmlns="http://www.w3.org/2000/svg">
<path d="M24 0.78125C10.7451 0.78125 0 11.6243 0 25C0 38.3757 10.7451 49.2188 24 49.2188C37.2549 49.2188 48 38.3757 48 25C48 11.6243 37.2549 0.78125 24 0.78125ZM35.1244 17.252C34.7632 21.0815 33.2004 30.3748 32.405 34.6641C32.0686 36.4789 31.4061 37.0875 30.7649 37.147C29.3714 37.2765 28.3128 36.2176 26.9629 35.3246C24.8506 33.9273 23.6573 33.0575 21.6069 31.694C19.2374 30.1184 20.7735 29.2526 22.1238 27.8366C22.4773 27.4662 28.6181 21.8298 28.7369 21.3185C28.7517 21.2545 28.7659 21.0157 28.6252 20.8903C28.4845 20.7649 28.2778 20.8074 28.1283 20.8415C27.9165 20.8901 24.542 23.1408 18.0049 27.5937C17.0472 28.2573 16.1796 28.5807 15.4023 28.5638C14.5454 28.5451 12.897 28.0749 11.6715 27.6729C10.1685 27.1799 8.97397 26.9192 9.078 26.0819C9.13219 25.6457 9.72735 25.1998 10.8635 24.744C17.86 21.668 22.5254 19.64 24.8597 18.6601C31.5248 15.8625 32.9097 15.3766 33.8124 15.3604C34.011 15.357 34.4549 15.4066 34.7424 15.6421C34.9337 15.8098 35.0556 16.0439 35.084 16.2979C35.1328 16.6134 35.1463 16.9334 35.1244 17.252Z" fill="white"/>
</svg>
