<svg width="46" height="46" viewBox="0 0 46 46" fill="none" xmlns="http://www.w3.org/2000/svg">
<path d="M3.23342 3.44827C0 6.64654 0 11.7947 0 22.09V23.91C0 34.2053 0 39.3535 3.23342 42.5517C6.46683 45.75 11.6716 45.75 22.08 45.75H23.92C34.3284 45.75 39.5332 45.75 42.7666 42.5517C46 39.3535 46 34.2053 46 23.91V22.09C46 11.7947 46 6.64654 42.7666 3.44827C39.5332 0.25 34.3284 0.25 23.92 0.25H22.08C11.6716 0.25 6.46683 0.25 3.23342 3.44827ZM7.7625 14.0896H13.0142C13.1867 22.7725 17.0583 26.4504 20.125 27.2087V14.0896H25.07V21.5781C28.0983 21.2559 31.28 17.8434 32.3533 14.0896H37.2983C36.8937 16.0364 36.0874 17.8795 34.9298 19.5041C33.7723 21.1286 32.2884 22.4994 30.5708 23.5309C32.4885 24.4726 34.1824 25.8062 35.5403 27.4435C36.8983 29.0809 37.8894 30.9846 38.4483 33.029H33.005C32.5034 31.2532 31.4827 29.6635 30.071 28.4594C28.6593 27.2554 26.9195 26.4905 25.07 26.2609V33.029H24.4758C13.9917 33.029 8.01167 25.9196 7.7625 14.0896Z" fill="white"/>
</svg>
