<svg width="58" height="41" viewBox="0 0 58 41" fill="none" xmlns="http://www.w3.org/2000/svg">
<path d="M56.2557 6.84453C55.6015 4.39638 53.6737 2.4683 51.2261 1.81398C46.7897 0.625 29 0.625 29 0.625C29 0.625 11.2104 0.625 6.77385 1.81398C4.32624 2.46841 2.39853 4.39638 1.74426 6.84453C0.555511 11.2819 0.555511 20.5402 0.555511 20.5402C0.555511 20.5402 0.555511 29.7984 1.74426 34.2358C2.39853 36.6839 4.32624 38.5317 6.77385 39.186C11.2104 40.375 29 40.375 29 40.375C29 40.375 46.7896 40.375 51.2261 39.186C53.6737 38.5317 55.6015 36.6839 56.2557 34.2358C57.4445 29.7984 57.4445 20.5402 57.4445 20.5402C57.4445 20.5402 57.4445 11.2819 56.2557 6.84453ZM23.1818 28.9459V12.1344L38.0504 20.5404L23.1818 28.9459Z" fill="white"/>
</svg>
