<svg width="35" height="35" viewBox="0 0 35 35" fill="none" xmlns="http://www.w3.org/2000/svg">
<g clip-path="url(#clip0_8_13)">
<path d="M11.2725 1.68147C10.7461 0.409989 9.3584 -0.266769 8.03223 0.0955355L2.0166 1.73616C0.827148 2.06429 0 3.14436 0 4.37483C0 21.2869 13.7129 34.9998 30.625 34.9998C31.8555 34.9998 32.9355 34.1727 33.2637 32.9832L34.9043 26.9676C35.2666 25.6414 34.5898 24.2537 33.3184 23.7274L26.7559 20.993C25.6416 20.5282 24.3496 20.8494 23.5908 21.786L20.8291 25.1561C16.0166 22.8797 12.1201 18.9832 9.84375 14.1707L13.2139 11.4158C14.1504 10.6502 14.4717 9.36507 14.0068 8.25081L11.2725 1.68831V1.68147Z" fill="white"/>
</g>
<defs>
<clipPath id="clip0_8_13">
<rect width="35" height="35" fill="white"/>
</clipPath>
</defs>
</svg>
